<svg
  id="Layer_1"
  data-name="Layer 1"
  xmlns="http://www.w3.org/2000/svg"
  viewBox="0 0 137.8 53.48"
>
  <defs>
    <style>
      .cls-1 {
        fill: #fff;
      }
    </style>
  </defs>
  <title>specs whte</title>
  <path
    class="cls-1"
    d="M109.16,42.87c-20.19,0-30.62,7.24-31,21.51a24,24,0,0,1-2.59-.55,18.14,18.14,0,0,0-4.29-.7,16,16,0,0,0-4.09.71,22.79,22.79,0,0,1-2.61.57c-.41-14.29-10.85-21.54-31.05-21.54-20.61,0-31.06,7.54-31.06,22.42a31.06,31.06,0,0,0,62.1,1.13,20.08,20.08,0,0,0,3.12-.65,14.55,14.55,0,0,1,3.59-.64,16,16,0,0,1,3.8.65,24.49,24.49,0,0,0,3.09.62,31.06,31.06,0,0,0,62.1-1.11C140.22,50.41,129.77,42.87,109.16,42.87ZM33.48,94.35A29.1,29.1,0,0,1,4.42,65.29c0-13.74,9.51-20.42,29.06-20.42s29.07,6.68,29.07,20.42A29.1,29.1,0,0,1,33.48,94.35Zm75.68,0A29.1,29.1,0,0,1,80.09,65.29c0-13.74,9.51-20.42,29.07-20.42s29.06,6.68,29.06,20.42A29.1,29.1,0,0,1,109.16,94.35Z"
    transform="translate(-2.42 -42.87)"
  />
</svg>
